<svg width="10" height="13" viewBox="0 0 10 13" fill="none" xmlns="http://www.w3.org/2000/svg">
<g clip-path="url(#clip0_1_671)">
<path d="M5.11168 11.95C6.34918 10.4453 9.10155 6.79844 9.10155 4.75C9.10155 2.26469 7.06371 0.25 4.54983 0.25C2.0369 0.25 -0.00189304 2.26469 -0.00189304 4.75C-0.00189304 6.79844 2.77181 10.4453 3.98798 11.95C4.27957 12.3086 4.82009 12.3086 5.11168 11.95ZM4.54983 6.25C3.71298 6.25 3.03259 5.57734 3.03259 4.75C3.03259 3.92266 3.71298 3.25 4.54983 3.25C5.38668 3.25 6.06707 3.92266 6.06707 4.75C6.06707 5.57734 5.38668 6.25 4.54983 6.25Z" fill="#EC502C"/>
</g>
<defs>
<clipPath id="clip0_1_671">
<rect width="9.10345" height="12" fill="white" transform="matrix(-1 0 0 1 9.10155 0.25)"/>
</clipPath>
</defs>
</svg>
